<svg xmlns="http://www.w3.org/2000/svg" viewBox="0 0 142 142"><title>Firestick</title><g id="Firestick" data-name="Firestick"><g id="Firestick" data-name="Firestick"><path d="M77.69,38c1.68-3.48,3.78-7.82,1.63-12.82A14.63,14.63,0,0,0,69.92,17a1.83,1.83,0,0,0-1.84,3c2.07,2.15,2.47,4.35,1.19,6.54a9.29,9.29,0,0,1-2,2.3,1.2,1.2,0,1,0,1.55,1.82,11.52,11.52,0,0,0,2.55-2.91,6.94,6.94,0,0,0,.8-5.59,8.34,8.34,0,0,0-1-2.19,11.83,11.83,0,0,1,6,6.17c1.71,4,0,7.64-1.59,10.85-1.15,2.37-2.24,4.62-1.7,6.72a2.92,2.92,0,0,0,2.82,2.36c3,.08,7-3.64,8.86-8.07a16,16,0,0,1,1.33,8.88c-.63,5-5.93,9.35-8.5,11.22H75.42a13.15,13.15,0,0,1,1.29-3c1.07-1.62.82-2.71.42-3.34-.81-1.29-2.72-1.65-6.21-1.18a1.49,1.49,0,0,1-1.37-.38c-1.28-1.25-1.4-5-1.17-7.07a1.2,1.2,0,0,0-2-1c-.17.16-4.33,3.84-5.7,8.43a15.06,15.06,0,0,0,.21,7.22c-5.77-4.17-6.31-8.82-5.7-12.06C56.3,39.81,60.06,36.8,64.16,34a1.2,1.2,0,0,0-1.36-2c-4.34,3-8.68,6.46-9.94,13.16-.9,4.78.78,9.27,4.76,12.9H53.07A2.07,2.07,0,0,0,51.17,61l.08.17a16.36,16.36,0,0,0,5.22,6.55l-.12.12a2.37,2.37,0,0,0-.71,1.71V72a2.42,2.42,0,0,0,2.42,2.42h1.55l7.3,47.24a4.15,4.15,0,0,0,8.21,0l7.27-47.23h1.39A2.42,2.42,0,0,0,86.21,72V69.52a2.41,2.41,0,0,0-.71-1.71l-.06,0A16.21,16.21,0,0,0,90.84,61a2.06,2.06,0,0,0-1.91-2.87H82.21c.64-.55,1.23-1.09,1.75-1.62,4-4,5-7.37,5.26-9.29A18.13,18.13,0,0,0,87,35.68a1.82,1.82,0,0,0-1.78-.89,1.85,1.85,0,0,0-1.54,1.26c-1.41,4.42-5.19,7.66-7,7.61-.2,0-.43,0-.57-.57C75.83,41.84,76.69,40.06,77.69,38ZM63,51.14A15.52,15.52,0,0,1,65.92,46c.11,2,.55,4.45,2,5.83a3.88,3.88,0,0,0,3.36,1c2.79-.38,3.65,0,3.84.07a2.35,2.35,0,0,1-.36.77,16.1,16.1,0,0,0-1.78,4.36H63.48C63,56.28,62.36,53.25,63,51.14ZM83.82,69.52V72l0,0H69.19a1.2,1.2,0,0,0,0,2.39H80l-7.21,46.87a1.77,1.77,0,0,1-3.49,0L62,74.37h1.6a1.2,1.2,0,1,0,0-2.39H58V69.52a0,0,0,0,1,0,0l25.76,0,0,0h0Zm4.62-9a13.94,13.94,0,0,1-6.5,6.63H60.06a14,14,0,0,1-6.5-6.63Z" style="fill:#fff"/><path d="M71,2A69,69,0,1,1,2,71,69.07,69.07,0,0,1,71,2m0-2a71,71,0,1,0,71,71A71,71,0,0,0,71,0Z" style="fill:#fff"/></g></g></svg>