<svg xmlns="http://www.w3.org/2000/svg" viewBox="0 0 24.93 24.95"><defs><style>.a{fill:#fff;}</style></defs><title>Asset 3</title><path class="a" d="M21.81.84A6.25,6.25,0,0,1,24.09,3.1a6,6,0,0,1,.84,3.1V18.75a6,6,0,0,1-.84,3.1,6.25,6.25,0,0,1-2.28,2.26,6.09,6.09,0,0,1-3.13.84H6.23a6,6,0,0,1-3.13-.84A6.28,6.28,0,0,1,.84,21.85,6,6,0,0,1,0,18.75V6.2A6,6,0,0,1,.84,3.1,6.28,6.28,0,0,1,3.1.84,6,6,0,0,1,6.23,0H18.68A6.09,6.09,0,0,1,21.81.84ZM22.6,6.2a3.8,3.8,0,0,0-.52-1.95,3.9,3.9,0,0,0-1.43-1.42,3.85,3.85,0,0,0-2-.53H6.23a3.92,3.92,0,0,0-3.4,2,3.81,3.81,0,0,0-.53,2V8.35H9.15a5.88,5.88,0,0,1,6.85,0h6.6Zm0,4.45H17.93a5.56,5.56,0,0,1,.57,2.5,5.7,5.7,0,0,1-.8,3,5.94,5.94,0,0,1-2.16,2.15,5.89,5.89,0,0,1-5.93,0A5.94,5.94,0,0,1,7.45,16.1a5.76,5.76,0,0,1-.22-5.45H2.3v8.1a3.81,3.81,0,0,0,.53,1.95,3.87,3.87,0,0,0,1.42,1.42,3.77,3.77,0,0,0,2,.53H18.68a3.76,3.76,0,0,0,2-.53,3.9,3.9,0,0,0,1.43-1.42,3.8,3.8,0,0,0,.52-1.95ZM10.85,14.88a2.37,2.37,0,0,0,1.74.72,2.33,2.33,0,0,0,1.72-.72A2.39,2.39,0,0,0,15,13.14a2.42,2.42,0,0,0-2.43-2.44,2.44,2.44,0,0,0-1.74,4.18Zm9.75-11a.66.66,0,0,1,.2.48V6.52a.66.66,0,0,1-.2.48.69.69,0,0,1-.5.2H18a.7.7,0,0,1-.49-.2.64.64,0,0,1-.22-.48V4.38a.64.64,0,0,1,.22-.48A.7.7,0,0,1,18,3.7H20.1A.69.69,0,0,1,20.6,3.9Z"/></svg>