<svg xmlns="http://www.w3.org/2000/svg" viewBox="0 0 25 25"><defs><style>.a{fill:#fff;}</style></defs><title>Asset 2</title><path class="a" d="M20.42,0a4.51,4.51,0,0,1,2.31.61,4.71,4.71,0,0,1,1.66,1.66A4.51,4.51,0,0,1,25,4.58V20.42a4.51,4.51,0,0,1-.61,2.31,4.71,4.71,0,0,1-1.66,1.66,4.51,4.51,0,0,1-2.31.61H16.9V15.23h3.65l.15-3.53H16.9V9.12A1.87,1.87,0,0,1,17.15,8a1.45,1.45,0,0,1,1.2-.42l2.25,0,.1-3.3L20,4.23c-.59,0-1.18-.06-1.78-.06a5.72,5.72,0,0,0-2.85.66A4,4,0,0,0,13.7,6.48a4.67,4.67,0,0,0-.53,2.22v3H10.58v3.53h2.59V25H4.58a4.51,4.51,0,0,1-2.31-.61A4.71,4.71,0,0,1,.61,22.73,4.51,4.51,0,0,1,0,20.42V4.58A4.51,4.51,0,0,1,.61,2.27,4.71,4.71,0,0,1,2.27.61,4.51,4.51,0,0,1,4.58,0Z"/></svg>