<svg xmlns="http://www.w3.org/2000/svg" viewBox="0 0 142 142"><title>-Column</title><g id="Column" data-name="Column"><g id="Column" data-name="Column"><path d="M71,2A69,69,0,1,1,2,71,69.07,69.07,0,0,1,71,2m0-2a71,71,0,1,0,71,71A71,71,0,0,0,71,0Z" style="fill:#fff"/><path d="M110.48,41.38a13.7,13.7,0,0,0-2-3.65,10.12,10.12,0,0,0-4.69-3.48,10.85,10.85,0,0,0-3.84-.76q-14.46,0-28.94,0c-9.71,0-19.41,0-29.11,0a10.27,10.27,0,0,0-2.7.36,10.79,10.79,0,0,0-4.53,2.51,11.38,11.38,0,0,0-3.31,5.28A10.69,10.69,0,0,0,31,45.48a9.14,9.14,0,0,0,.44,2.26,9.34,9.34,0,0,0,2.16,3.51,9.69,9.69,0,0,0,3.85,2.39,9.46,9.46,0,0,0,3.4.36,6.11,6.11,0,0,0,2.88-.81,7.78,7.78,0,0,0,4-5,6.52,6.52,0,0,0-.46-4.71A6.37,6.37,0,0,0,42.68,40a4.12,4.12,0,0,0-1.52-.1,7.73,7.73,0,0,0-2.11.66,4.74,4.74,0,0,0-2.29,2.24,7.88,7.88,0,0,0-.53,1.75c-.21,1,0,1.37.54,1.81a1,1,0,0,0,1.12.12,1.29,1.29,0,0,0,.8-1A6.73,6.73,0,0,1,39,44.09a2.87,2.87,0,0,1,2.88-1.6,5.24,5.24,0,0,1,1.65.62A3.83,3.83,0,0,1,45.37,47,5.06,5.06,0,0,1,43,50.65a4.88,4.88,0,0,1-1.87.75,6.59,6.59,0,0,1-3.7-.52A6.76,6.76,0,0,1,33.91,47a7.3,7.3,0,0,1-.15-4.27,8.7,8.7,0,0,1,8.61-6.72q28.85,0,57.69,0A7.62,7.62,0,0,1,104,37.11a8.41,8.41,0,0,1,4.23,5.51,7.42,7.42,0,0,1,.32,1.91,7.17,7.17,0,0,1-.94,3.57,6.68,6.68,0,0,1-6.84,3.32,2.5,2.5,0,0,1-.81-.22A5.11,5.11,0,0,1,97.34,49a4.5,4.5,0,0,1-.53-3.84,3.8,3.8,0,0,1,3.47-2.63,2.85,2.85,0,0,1,3,2.83c0,.74,1,1.61,1.74,1.2a1.49,1.49,0,0,0,.71-1.14,4.22,4.22,0,0,0-.62-2.64A5.31,5.31,0,0,0,101.38,40a5.7,5.7,0,0,0-3.51.51,6.37,6.37,0,0,0-3.82,5.71,8.06,8.06,0,0,0,.38,2.43,7.5,7.5,0,0,0,1,2,6.89,6.89,0,0,0,2.16,2,11.06,11.06,0,0,0,1.64.92,8.07,8.07,0,0,0,2.86.37,8.47,8.47,0,0,0,5.08-1.74A9.13,9.13,0,0,0,110.71,47,10,10,0,0,0,110.48,41.38ZM70.06,87.17h2.46V48.57H70.06Zm8.27,12h2.46V48.57H78.33Zm8.21,15.3H89V48.58H86.54ZM61.79,79H63.6c.73,0,.73,0,.73-.73V48.58H61.79ZM53.42,49.14V71a2.43,2.43,0,0,1,0,.27c0,.33.1.49.48.45a8.44,8.44,0,0,1,1.33,0c.75,0,.75.06.75-.66V48.57H53.42Zm37-10.68H52.12a3.56,3.56,0,0,0-.8,0,.6.6,0,0,0-.36.37c0,.48,0,1,0,1.44,0,.77,0,.77.79.77H89.63a8.23,8.23,0,0,1,.86,0c.41,0,.59-.1.56-.54a9.27,9.27,0,0,1,0-1.49C91.09,38.55,90.88,38.46,90.43,38.46Zm-.14,5H51.69a.91.91,0,0,0-.37,0c-.14.08-.35.22-.35.34,0,.72,0,1.44,0,2.18H91V44.15C91,43.43,91,43.43,90.29,43.43Z" style="fill:#fff"/></g></g></svg>