<svg xmlns="http://www.w3.org/2000/svg" viewBox="0 0 142 142"><title>Hands</title><g id="Hands" data-name="Hands"><g id="Hands" data-name="Hands"><path d="M71,2A69,69,0,1,1,2,71,69.07,69.07,0,0,1,71,2m0-2a71,71,0,1,0,71,71A71,71,0,0,0,71,0Z" style="fill:#fff"/><path d="M111.5,48.5h-.26a4.5,4.5,0,0,0-4.24-6h-1.76a4.5,4.5,0,0,0-4.24-6H84.5a19.88,19.88,0,0,0-10.24,2.84A12.25,12.25,0,0,1,68,41H63.5V38a4.5,4.5,0,0,0-6-4.24V30.5a4.5,4.5,0,0,0-9,0v.26a4.5,4.5,0,0,0-6,4.24v1.76a4.5,4.5,0,0,0-6,4.24V57.5a19.88,19.88,0,0,0,2.84,10.24A12.25,12.25,0,0,1,41,74V78.5H38a4.5,4.5,0,0,0-4.24,6H30.5a4.5,4.5,0,0,0,0,9h.26a4.5,4.5,0,0,0,4.24,6h1.76a4.5,4.5,0,0,0,4.24,6H57.5a19.88,19.88,0,0,0,10.24-2.84A12.25,12.25,0,0,1,74,101H78.5v3a4.5,4.5,0,0,0,6,4.24v3.26a4.5,4.5,0,0,0,9,0v-.26a4.5,4.5,0,0,0,6-4.24v-1.76a4.5,4.5,0,0,0,6-4.24V84.5a19.88,19.88,0,0,0-2.84-10.24A12.25,12.25,0,0,1,101,68V63.5h3a4.5,4.5,0,0,0,4.24-6h3.26a4.5,4.5,0,0,0,0-9Zm-72,9V41a1.5,1.5,0,0,1,3,0V51.5a1.5,1.5,0,0,0,3,0V35a1.5,1.5,0,0,1,3,0V51.5a1.5,1.5,0,0,0,3,0v-21a1.5,1.5,0,0,1,3,0v21a1.5,1.5,0,0,0,3,0V38a1.5,1.5,0,0,1,3,0V60.5A1.5,1.5,0,0,0,62,62h2.91a10.34,10.34,0,0,1-3.69,6.69A6.08,6.08,0,0,0,59,73.35V78.5H44V74a15.29,15.29,0,0,0-2.09-7.83A16.84,16.84,0,0,1,39.5,57.5ZM67.9,62h.75A3.07,3.07,0,0,1,71,63.15a13.51,13.51,0,0,0,9,4.75v.75A3.07,3.07,0,0,1,78.85,71a13.51,13.51,0,0,0-4.75,9h-.75A3.07,3.07,0,0,1,71,78.85a13.51,13.51,0,0,0-9-4.75v-.75A3.07,3.07,0,0,1,63.15,71,13.51,13.51,0,0,0,67.9,62ZM78.5,98H74a15.29,15.29,0,0,0-7.83,2.09,16.84,16.84,0,0,1-8.69,2.41H41a1.5,1.5,0,0,1,0-3H51.5a1.5,1.5,0,0,0,0-3H35a1.5,1.5,0,0,1,0-3H51.5a1.5,1.5,0,0,0,0-3h-21a1.5,1.5,0,0,1,0-3h21a1.5,1.5,0,0,0,0-3H38a1.5,1.5,0,0,1,0-3H60.5A1.5,1.5,0,0,0,62,80V77.1a10.28,10.28,0,0,1,6.69,3.68A6.08,6.08,0,0,0,73.35,83H78.5V98Zm24-13.5V101a1.5,1.5,0,0,1-3,0V90.5a1.5,1.5,0,0,0-3,0V107a1.5,1.5,0,0,1-3,0V90.5a1.5,1.5,0,0,0-3,0v21a1.5,1.5,0,0,1-3,0v-21a1.5,1.5,0,0,0-3,0V104a1.5,1.5,0,0,1-3,0V81.5A1.5,1.5,0,0,0,80,80H77.1a10.28,10.28,0,0,1,3.68-6.69A6.08,6.08,0,0,0,83,68.65V63.5H98V68a15.29,15.29,0,0,0,2.09,7.83A16.84,16.84,0,0,1,102.5,84.5Zm9-30h-21a1.5,1.5,0,0,0,0,3H104a1.5,1.5,0,0,1,0,3H81.5A1.5,1.5,0,0,0,80,62v2.91a10.34,10.34,0,0,1-6.69-3.69A6.08,6.08,0,0,0,68.65,59H63.5V44H68a15.29,15.29,0,0,0,7.83-2.09A16.84,16.84,0,0,1,84.5,39.5H101a1.5,1.5,0,0,1,0,3H90.5a1.5,1.5,0,0,0,0,3H107a1.5,1.5,0,0,1,0,3H90.5a1.5,1.5,0,0,0,0,3h21a1.5,1.5,0,0,1,0,3Z" style="fill:#fff"/></g></g></svg>