<svg xmlns="http://www.w3.org/2000/svg" viewBox="0 0 145.1 145.1"><defs><style>.a{fill:#6a757d;}.b,.c,.d,.e{fill:none;stroke-miterlimit:10;stroke-width:8px;}.b{stroke:red;}.c{stroke:#f90;}.d{stroke:#1e4ba5;}.e{stroke:#0b4c45;}</style></defs><title>logo-Asset 4</title><path class="a" d="M119.14,58.65l1.17,0-.32.32V71.29a25.52,25.52,0,0,0-.85-3Z"/><path class="a" d="M117.71,58.65l1.38,0-.3.32v8.4a19.39,19.39,0,0,0-1.08-2.28Z"/><path class="a" d="M109.71,58.65l.84,0-.34.34v.44a1.32,1.32,0,0,0-.28,0h-.22Z"/><path class="a" d="M110.61,58.67l1.18-.05-.48.32v.6a6,6,0,0,0-.7-.11Z"/><path class="a" d="M115.69,58.65l2,0-.4.32v5.32a13.6,13.6,0,0,0-1.57-2Z"/><path class="a" d="M111.82,58.68l1.55-.06-.52.32V60.1a6.69,6.69,0,0,0-1-.41Z"/><path class="a" d="M109,53.8a1,1,0,0,1,0,.24,1.82,1.82,0,0,1-.49,1.15,2,2,0,0,1-2.6,0,1.6,1.6,0,0,1-.53-1.26,1.63,1.63,0,0,0,.51.9,2,2,0,0,0,2.59,0A1.89,1.89,0,0,0,109,53.8Z"/><path class="a" d="M110.31,53.72a1.66,1.66,0,0,1,0,.32c0,3.41-5.18,3.88-6.08.89,0-.09.06-.12.09-.06C105.67,57.6,110.27,57,110.31,53.72Z"/><path class="a" d="M126.73,53.64c0,.18,0,.35,0,.54.13,3.43-5,4-6.12.69,0-.1,0-.11.07-.06,1.13,3,6,2.3,6-1Z"/><path class="a" d="M125.6,53.57c.51,2.34-3,3.12-3.69.94,0-.08.07-.08.09,0a1.85,1.85,0,0,0,.32.47,2.05,2.05,0,0,0,2.61,0A2,2,0,0,0,125.6,53.57Z"/><path class="a" d="M124.08,53.75c-.09.29-.21.38-.54.32s-.41-.24-.68-.22a.38.38,0,0,0-.35.22c.06-.31.21-.46.43-.47a.79.79,0,0,1,.55.16A.49.49,0,0,0,124.08,53.75Z"/><path class="a" d="M124.84,52.94a2.12,2.12,0,0,0-3.56.59c0,.08-.09.08-.09,0,0-2,3.28-2.36,3.78-.66C125,53,124.9,53,124.84,52.94Z"/><path class="a" d="M126.39,52.72A3.24,3.24,0,0,0,123.23,51c-2.64,0-5.46,1.53-7.82,1.55s-5.24-1.71-7.69-1.71a3.44,3.44,0,0,0-2.91,1.49c-.08.12-.21.1-.12-.09a3.34,3.34,0,0,1,3-1.78c2.44,0,5.32,1.56,7.68,1.53s5.15-1.37,7.79-1.37c1.7,0,2.87.7,3.29,2C126.52,52.73,126.44,52.82,126.39,52.72Z"/><path class="a" d="M109.36,52.9a2.18,2.18,0,0,0-3.57.13c-.06.09-.15.09-.1-.06.55-1.64,3.23-1.88,3.76-.13C109.48,52.94,109.4,53,109.36,52.9Z"/><path class="a" d="M108.26,53.75c-.07-.11-.3-.11-.44-.09-.32,0-.77.42-1.07-.15.12.13.44.09.62,0S108.23,53.37,108.26,53.75Z"/><path class="a" d="M113.53,58.65l2.08,0-.8.32V61.4a11.47,11.47,0,0,0-1.28-.93Z"/><path class="a" d="M120.17,56.64c.29,0,.32-.14.33-.13s.12,0,0-.44a1.16,1.16,0,0,1-.46.44C119.91,56.6,119.86,56.66,120.17,56.64Z"/><path class="a" d="M118.76,56.61c.31,0,.33-.14.34-.13s.12,0,0-.42a1.4,1.4,0,0,1-.48.42C118.5,56.57,118.47,56.63,118.76,56.61Z"/><path class="a" d="M117.41,56.64c.3,0,.33-.14.34-.13s.12,0,0-.44a1.23,1.23,0,0,1-.47.44C117.15,56.6,117.11,56.66,117.41,56.64Z"/><path class="a" d="M116,56.64c.31,0,.34-.14.34-.13s.11,0,0-.44a1.24,1.24,0,0,1-.48.44C115.72,56.6,115.69,56.66,116,56.64Z"/><path class="a" d="M114.5,56.61a.43.43,0,0,0,.34-.13s.11,0,0-.42a1.31,1.31,0,0,1-.47.42C114.24,56.57,114.19,56.63,114.5,56.61Z"/><path class="a" d="M113,56.58c.3,0,.32-.13.32-.13s.12,0,0-.42a1.31,1.31,0,0,1-.47.42C112.74,56.54,112.71,56.6,113,56.58Z"/><path class="a" d="M111.72,56.64c.31,0,.32-.14.34-.13s.11,0,0-.44a1.31,1.31,0,0,1-.48.44C111.45,56.6,111.43,56.66,111.72,56.64Z"/><path class="a" d="M112.45,57.1l8.23,0v1.55h0V75.83c-.07-.84-.18-1.64-.29-2.4V58.62h.23C119.89,56.72,112.7,57.55,112.45,57.1Z"/><path class="a" d="M110.27,56.58c.29,0,.32-.13.32-.13s.12,0,0-.42a1.4,1.4,0,0,1-.47.42C110,56.54,110,56.6,110.27,56.58Z"/><path class="a" d="M28.88,83.6a2.44,2.44,0,0,0,0,.27h0v.28a.93.93,0,0,1,0,.24v0c0,.07,0,.14,0,.23v0a.89.89,0,0,0,0,.22v0a.78.78,0,0,0,0,.22v0a12.2,12.2,0,0,0,.58,2.29h0a11.2,11.2,0,0,0,10,7.2H18.34A11.17,11.17,0,0,0,28.88,83.63h0v0Zm3.41,9.74a12.8,12.8,0,0,1-3.43-4.16,12.5,12.5,0,0,1-3.41,4.16Z"/><path class="a" d="M62.38,93.37a12.67,12.67,0,0,1-3.76-4.89l-15-30.12-.43-.84c0-.08-.19-.35-.22-.42a9.76,9.76,0,0,0-8.23-5.36v0H30a12.54,12.54,0,0,1,3.75,4.91l15,30.12c0,.11.32.66.43.85a9.78,9.78,0,0,0,8.43,5.76h4.77ZM80.59,83.6v.27h0a2.26,2.26,0,0,1,0,.25v0c0,.07,0,.16,0,.24v0c0,.07,0,.14,0,.23v0c0,.07,0,.14,0,.22a.06.06,0,0,1,0,0,1.46,1.46,0,0,0,0,.22v0a12.23,12.23,0,0,0,.59,2.29h0a11.19,11.19,0,0,0,10,7.2H58.08a11.09,11.09,0,0,1-10.14-6.63L34,60h0l-1.34-2.68,0,0a11.09,11.09,0,0,0-10.28-7h12A10.73,10.73,0,0,1,44,56.23c4.61,9.68,9.59,19.25,14.38,28.85,0,0,1.57,3.12,1.68,3.37a10.75,10.75,0,0,0,20.51-4.82h0Z"/><path class="a" d="M59.57,51.75h6.77A12.42,12.42,0,0,0,64,54.24a12.76,12.76,0,0,0-1,1.64,12.4,12.4,0,0,0-3.38-4.13Zm21.1,25.19v1.33H94.26l4.89,9.8a11.1,11.1,0,0,0,10.14,6.62h12a11.11,11.11,0,0,1-10-6.24c-.11-.25-1.7-3.37-1.68-3.37-4.79-9.6-9.77-19.17-14.38-28.86a10.69,10.69,0,0,0-9.74-5.83H53v0h-.82a11.11,11.11,0,0,1,10,7.22h0a10.39,10.39,0,0,1,.59,2.27.06.06,0,0,1,0,0,1.66,1.66,0,0,0,0,.22v0a1.46,1.46,0,0,0,0,.22v0a2.09,2.09,0,0,1,0,.25v0a.9.9,0,0,1,0,.23s0,0,0,0v.25h0v.25h0c0-.22,0-.42,0-.63V61c0,.09,0,.16,0,.25h0v.25h0a11.18,11.18,0,0,1,10.5-11.05h.17a11.1,11.1,0,0,1,10.19,7l0,0L85.18,60h0L93.6,76.94Z"/><path class="b" d="M24.08,121a68.55,68.55,0,0,1,0-96.94"/><path class="c" d="M24.08,24.08a68.55,68.55,0,0,1,96.94,0"/><path class="d" d="M121,24.08A68.55,68.55,0,0,1,121,121"/><path class="e" d="M121,121a68.55,68.55,0,0,1-96.94,0"/></svg>