<?xml version="1.0" encoding="utf-8"?>
<!-- Generator: Adobe Illustrator 23.0.1, SVG Export Plug-In . SVG Version: 6.00 Build 0)  -->
<svg version="1.1" id="Layer_1" xmlns="http://www.w3.org/2000/svg" xmlns:xlink="http://www.w3.org/1999/xlink" x="0px" y="0px"
	 viewBox="0 0 124.7 52" style="enable-background:new 0 0 124.7 52;" xml:space="preserve">
<style type="text/css">
	.st0{fill:#FFFFFF;}
</style>
<title>logo-na-whAsset 2</title>
<path class="st0" d="M115,9.4h1.3L116,9.8v14c-0.3-1.2-0.6-2.3-1-3.4V9.4z"/>
<path class="st0" d="M113.4,9.4h1.6l-0.3,0.4v9.6c-0.3-0.9-0.8-1.8-1.2-2.6L113.4,9.4z"/>
<path class="st0" d="M104.3,9.4h1l-0.4,0.4v0.5h-0.6V9.4z"/>
<path class="st0" d="M105.3,9.4h1.4l-0.6,0.4v0.7c-0.3-0.1-0.5-0.1-0.8-0.1V9.4z"/>
<path class="st0" d="M111.1,9.4h2.2l-0.4,0.4v6.1c-0.5-0.8-1.1-1.6-1.8-2.3L111.1,9.4z"/>
<path class="st0" d="M106.7,9.5l1.8-0.1l-0.6,0.4v1.3c-0.4-0.2-0.8-0.3-1.2-0.5C106.7,10.6,106.7,9.5,106.7,9.5z"/>
<path class="st0" d="M103.4,3.9c0,0.1,0,0.2,0,0.3c0,0.5-0.2,1-0.6,1.3c-0.9,0.7-2.1,0.7-3,0c-0.4-0.4-0.6-0.9-0.5-1.5
	c0.1,0.4,0.3,0.7,0.6,1c0.9,0.7,2.1,0.7,3,0C103.2,4.7,103.4,4.3,103.4,3.9z"/>
<path class="st0" d="M105,3.8c0,0.1,0,0.2,0,0.4c0,3.9-5.9,4.4-6.9,1c0-0.1,0.1-0.1,0.1-0.1C99.7,8.2,104.9,7.5,105,3.8z"/>
<path class="st0" d="M123.7,3.7c0,0.2,0,0.4,0,0.6c0.2,3.9-5.7,4.6-7,0.8c0-0.1,0-0.1,0.1-0.1c1.3,3.4,6.9,2.6,6.9-1.1V3.7z"/>
<path class="st0" d="M122.4,3.6c0.6,2.7-3.5,3.6-4.2,1.1c0-0.1,0.1-0.1,0.1,0c0.1,0.2,0.2,0.4,0.4,0.5c0.9,0.7,2.1,0.7,3,0
	C122.1,4.8,122.4,4.2,122.4,3.6z"/>
<path class="st0" d="M120.7,3.8c-0.1,0.3-0.2,0.4-0.6,0.4s-0.5-0.3-0.8-0.2c-0.2,0-0.3,0.1-0.4,0.2c0.1-0.4,0.2-0.5,0.5-0.5
	c0.2,0,0.5,0,0.6,0.2C120.2,4,120.5,4,120.7,3.8z"/>
<path class="st0" d="M121.5,2.9c-0.9-1-2.4-1.1-3.4-0.3c-0.3,0.3-0.5,0.6-0.7,0.9c0,0.1-0.1,0.1-0.1,0c0-2.3,3.8-2.7,4.3-0.8
	C121.7,3,121.6,3,121.5,2.9z"/>
<path class="st0" d="M123.3,2.7c-0.7-1.3-2.1-2.1-3.6-2c-3,0-6.2,1.8-8.9,1.8s-6-1.9-8.8-1.9c-1.3,0-2.6,0.6-3.3,1.7
	c-0.1,0.1-0.2,0.1-0.1-0.1c0.7-1.3,2-2,3.5-2c2.8,0,6.1,1.8,8.8,1.8s5.9-1.6,8.9-1.6c1.9,0,3.3,0.8,3.8,2.3
	C123.4,2.7,123.3,2.8,123.3,2.7z"/>
<path class="st0" d="M103.9,2.9c-0.8-1.1-2.4-1.3-3.5-0.5c-0.2,0.2-0.4,0.4-0.6,0.6c-0.1,0.1-0.2,0.1-0.1-0.1
	C100.3,1.1,103.4,0.8,103.9,2.9C104,2.9,103.9,2.9,103.9,2.9z"/>
<path class="st0" d="M102.6,3.8c-0.1-0.1-0.3-0.1-0.5-0.1c-0.4,0-0.9,0.5-1.2-0.2c0.1,0.2,0.5,0.1,0.7,0S102.6,3.4,102.6,3.8z"/>
<path class="st0" d="M108.6,9.4h2.4l-0.9,0.4v2.8c-0.5-0.4-1-0.7-1.5-1.1V9.4z"/>
<path class="st0" d="M116.2,7.1c0.1,0,0.3,0,0.4-0.2c0,0,0.1-0.1,0-0.5c-0.1,0.2-0.3,0.4-0.6,0.5C115.9,7.1,115.8,7.1,116.2,7.1z"/>
<path class="st0" d="M114.6,7.1c0.3,0,0.4-0.2,0.4-0.2s0.1,0,0-0.5c-0.1,0.2-0.3,0.4-0.6,0.5C114.3,7,114.2,7.1,114.6,7.1z"/>
<path class="st0" d="M113.1,7.1c0.3,0,0.4-0.2,0.4-0.2s0.1-0.1,0-0.5c-0.1,0.2-0.3,0.4-0.5,0.5C112.8,7.1,112.7,7.1,113.1,7.1z"/>
<path class="st0" d="M111.4,7.1c0.4,0,0.4-0.2,0.4-0.2s0.1-0.1,0-0.5c-0.1,0.2-0.3,0.4-0.6,0.5C111.1,7.1,111.1,7.1,111.4,7.1z"/>
<path class="st0" d="M109.7,7.1c0.1,0,0.3-0.1,0.4-0.2c0,0,0.1,0,0-0.5c-0.1,0.2-0.3,0.4-0.5,0.5S109.4,7.1,109.7,7.1z"/>
<path class="st0" d="M108,7.1c0.3,0,0.4-0.2,0.4-0.2s0.1,0,0-0.5c-0.1,0.2-0.3,0.4-0.5,0.5C107.7,7,107.7,7.1,108,7.1z"/>
<path class="st0" d="M106.6,7.1c0.3,0,0.4-0.2,0.4-0.2s0.1-0.1,0-0.5c-0.1,0.2-0.3,0.4-0.6,0.5C106.2,7.1,106.2,7.1,106.6,7.1z"/>
<path class="st0" d="M107.4,7.6h9.4v1.7l0,0V29c-0.1-1-0.2-1.9-0.3-2.7V9.4h0.3C115.9,7.2,107.7,8.2,107.4,7.6z"/>
<path class="st0" d="M104.9,7.1c0.3,0,0.4-0.2,0.4-0.2s0.1,0,0-0.5c-0.1,0.2-0.3,0.4-0.5,0.5C104.6,7,104.6,7.1,104.9,7.1z"/>
<path class="st0" d="M12,37.9c0,0.1,0,0.2,0,0.3l0,0v0.3c0,0.1,0,0.2,0,0.3l0,0c0,0.1,0,0.2,0,0.3l0,0c0,0.1,0,0.2,0,0.2l0,0
	c0,0.1,0,0.2,0,0.2l0,0c0.1,0.9,0.4,1.8,0.7,2.6l0,0c1.8,4.8,6.3,8,11.4,8.2H0c6.8-0.2,12-6.2,12-12.6l0,0l0,0V37.9z M15.9,49
	c-1.6-1.3-3-2.9-3.9-4.7c-0.9,1.8-2.3,3.5-3.9,4.7H15.9z"/>
<path class="st0" d="M50.3,49c-1.9-1.5-3.3-3.4-4.3-5.5L28.9,9.1l-0.5-0.9c0-0.1-0.2-0.4-0.2-0.5c-1.8-3.6-5.4-5.9-9.4-6.1l0,0h-5.4
	c1.9,1.5,3.3,3.4,4.3,5.6l17.1,34.4c0,0.1,0.4,0.8,0.5,1c1.7,3.8,5.4,6.3,9.6,6.5l0,0C44.8,49,50.3,49,50.3,49z M71,37.9v0.3l0,0
	c0,0.1,0,0.2,0,0.3l0,0c0,0.1,0,0.2,0,0.3l0,0c0,0.1,0,0.2,0,0.3l0,0c0,0.1,0,0.2,0,0.2l0,0c0,0.1,0,0.2,0,0.2l0,0
	c0.1,0.9,0.4,1.8,0.7,2.6l0,0c1.8,4.8,6.3,8,11.4,8.2H45.3c-5,0-9.5-2.8-11.6-7.4l-16-32l0,0l-1.5-3l0,0C14.4,3.2,9.7,0,4.5,0h13.7
	c4.7-0.1,9,2.5,11.1,6.7c5.3,11,10.9,22,16.4,32.9c0,0,1.8,3.6,1.9,3.8c2.1,4.3,6.5,7.1,11.4,7.1C65.7,50.2,70.9,44.6,71,37.9
	L71,37.9L71,37.9z"/>
<path class="st0" d="M47,1.5h7.7c-1.6,1.3-2.9,2.9-3.9,4.7C50,4.4,48.7,2.8,47,1.5z M71.1,30.3v1.5h15.5L92.2,43
	c2,4.6,6.6,7.6,11.6,7.6h13.7c-4.8,0-9.2-2.8-11.4-7.1c-0.1-0.3-1.9-3.8-1.9-3.8C98.7,28.6,93,17.7,87.7,6.6
	C85.6,2.5,81.3-0.1,76.6,0h-37l0,0h-0.9c5.1,0.2,9.6,3.5,11.4,8.2l0,0c0.3,0.8,0.5,1.7,0.7,2.6c0,0,0,0,0,0.1s0,0.2,0,0.2l0,0
	c0,0.1,0,0.2,0,0.2l0,0c0,0.1,0,0.2,0,0.3l0,0c0,0.1,0,0.2,0,0.3l0,0v0.3l0,0v0.3l0,0c0-0.3,0-0.5,0-0.7v0.1c0,0.1,0,0.2,0,0.3l0,0
	v0.3l0,0C50.9,6.1,56.3,0.2,62.9,0h0.2c5.1,0.1,9.7,3.2,11.6,8l0,0l1.6,3l0,0l9.6,19.3H71.1z"/>
</svg>
