<svg xmlns="http://www.w3.org/2000/svg" viewBox="0 0 19.98 19.98"><defs><style>.a{fill:#fff;}</style></defs><title>Asset 9</title><path class="a" d="M19.1.88a3,3,0,0,1,.66,1A3,3,0,0,1,20,3a3.11,3.11,0,0,1-.22,1.13,2.92,2.92,0,0,1-.66,1L6.35,17.83l-.08.07a.31.31,0,0,1-.1.05L.66,20H.51a.48.48,0,0,1-.2,0,.59.59,0,0,1-.17-.1A.5.5,0,0,1,0,19.59a.42.42,0,0,1,0-.27l2-5.51a.41.41,0,0,1,.05-.09l.07-.09L14.9.88a3.19,3.19,0,0,1,1-.65A2.93,2.93,0,0,1,17,0a3,3,0,0,1,1.16.23A3.15,3.15,0,0,1,19.1.88ZM5.72,17.05,16.8,6,14,3.18,2.93,14.26l-1.6,4.39ZM18.4,4.38a2.32,2.32,0,0,0,.43-.64,1.95,1.95,0,0,0,0-1.5,2.58,2.58,0,0,0-.43-.66,2,2,0,0,0-.64-.42A2,2,0,0,0,17,1a1.9,1.9,0,0,0-1.38.56l-.9.9L17.5,5.27Z"/></svg>