<svg xmlns="http://www.w3.org/2000/svg" viewBox="0 0 14 14"><defs><style>.a{fill:#b7b7b7;}</style></defs><title>Asset 1</title><path class="a" d="M.18,1.4A2.46,2.46,0,0,1,.67.67,2.46,2.46,0,0,1,1.4.18,2.25,2.25,0,0,1,2.29,0a2.46,2.46,0,0,1,.88.17,2.19,2.19,0,0,1,.75.5l9,9L14,14,9.67,12.92l-9-9a2.19,2.19,0,0,1-.5-.75A2.46,2.46,0,0,1,0,2.29,2.25,2.25,0,0,1,.18,1.4Zm3.57.35-.32-.33a2.79,2.79,0,0,0-.32-.28A1.31,1.31,0,0,0,2.3.88,1.26,1.26,0,0,0,1.75,1a1.55,1.55,0,0,0-.46.31,1.54,1.54,0,0,0-.3.45,1.26,1.26,0,0,0-.12.55A1.25,1.25,0,0,0,1,2.75a1.24,1.24,0,0,0,.19.36,2.14,2.14,0,0,0,.28.32l.33.32Zm.62.62-2,2,7.39,7.39a3.09,3.09,0,0,1,2-2Zm7.87,8.18a2.05,2.05,0,0,0-.6.22,2.1,2.1,0,0,0-.87.87,2.17,2.17,0,0,0-.22.6l2.25.56Z"/></svg>