<svg xmlns="http://www.w3.org/2000/svg" viewBox="0 0 53.85 37.5"><defs><style>.a{fill:#00204c;}</style></defs><title>Asset 5</title><path class="a" d="M14.55,0q4.8,0,7,2.48A9.27,9.27,0,0,1,23.7,8.85V11a31.44,31.44,0,0,1-3.6,13.57,39.93,39.93,0,0,1-10,13H0a66.28,66.28,0,0,0,7.27-9.08,29.23,29.23,0,0,0,4-9.52,7.21,7.21,0,0,1-4.43-2.85A8.87,8.87,0,0,1,5.4,11V8.85A9.27,9.27,0,0,1,7.57,2.48Q9.74,0,14.55,0ZM44.7,0q4.8,0,7,2.48a9.27,9.27,0,0,1,2.18,6.37V11a31.44,31.44,0,0,1-3.6,13.57,39.93,39.93,0,0,1-10,13H30.15a66.28,66.28,0,0,0,7.27-9.08,29.23,29.23,0,0,0,4-9.52A7.16,7.16,0,0,1,37,16.05,8.8,8.8,0,0,1,35.55,11V8.85a9.23,9.23,0,0,1,2.18-6.37C39.17.83,41.5,0,44.7,0Z"/></svg>