<svg xmlns="http://www.w3.org/2000/svg" viewBox="0 0 15.72 11.06"><defs><style>.a{fill:#fff;}</style></defs><title>Asset 10</title><path class="a" d="M15.6,5.23a.38.38,0,0,1,.12.29.45.45,0,0,1-.12.31l-5.09,5.09a.41.41,0,0,1-.14.1.29.29,0,0,1-.16,0A.35.35,0,0,1,10,11a.26.26,0,0,1-.13-.1.35.35,0,0,1-.13-.3.35.35,0,0,1,.13-.29l4.37-4.39H.43a.45.45,0,0,1-.31-.12A.4.4,0,0,1,0,5.53a.43.43,0,0,1,.12-.31A.45.45,0,0,1,.43,5.1H14.28L9.89.73A.49.49,0,0,1,9.78.42a.48.48,0,0,1,.11-.3A.47.47,0,0,1,10.2,0a.45.45,0,0,1,.31.12Z"/></svg>