<svg xmlns="http://www.w3.org/2000/svg" viewBox="0 0 512 512"><defs><style>.a{fill:#fff;}</style></defs><title>Asset 1</title><path class="a" d="M387.66,464A10,10,0,0,0,374,460.39l-.39.22a10,10,0,0,0,10,17.3l.38-.23A10,10,0,0,0,387.66,464Z"/><path class="a" d="M477.69,128.08A255.92,255.92,0,0,0,128.08,34.4,256,256,0,0,0,347.6,495.09a10,10,0,0,0-7.18-18.67,234.42,234.42,0,0,1-225.58-31l9-46.77,4.31-1.4a31.14,31.14,0,0,0,20-39.2l-3.17-9.75a11,11,0,0,1,0-6.89,31.11,31.11,0,0,0-23.59-40.23l-22.57-4.41L55.22,263.66a10,10,0,0,0-9.14-1.55l-25.5,8.28a234.58,234.58,0,0,1,0-27.3c1,.94,1.66,1.57,2.06,2a10.18,10.18,0,0,0,1.84,2.25c2.09,1.9,4,2.76,7.93,2.76,3.64,0,9-.73,17.92-2,8.44-1.25,16.83-2.65,16.91-2.67a10,10,0,0,0,6.61-15.49l-12.26-18,17.56-12.56A10,10,0,0,0,82,196.18l27.23-47.52,11-11.76a42.25,42.25,0,0,0,8.15-44.8,46,46,0,0,0-18.22-21.45,235.79,235.79,0,0,1,143.2-50.47l-17.86,22.4L169.24,65.79a10,10,0,0,0-5.94,5.63l-18.49,44.82a10,10,0,0,0,1.11,9.63l27,37.83c-3.87,3.53-7.64,8.67-12.13,15.05-2,2.8-3.84,5.44-5.13,6.92-1.11,1.29-2.23,2.55-3.34,3.8-5.81,6.54-11.82,13.3-16.09,22.32-9.38,19.86-7.48,43,4.95,60.24,12,16.73,31.84,25.23,53,22.74a77.07,77.07,0,0,0,9.77-2c8.57-2.12,11.29-2.33,14,.24,1.33,1.26,1.46,1.49,1.43,5.74a38.88,38.88,0,0,0,.89,9.91c1.5,6.15,5.35,10.39,8.45,13.81a22.15,22.15,0,0,1,3.63,4.62c3.12,7.48,1.76,11.62-1.21,20.69-.26.77-.52,1.56-.78,2.38-4.52,14,1.78,27.87,7.34,40.12,1.81,4,3.51,7.73,4.63,11.05,9,26.68,15.73,32.79,21.14,35.25a21,21,0,0,0,8.73,1.85c14.41,0,29.45-13.39,36.36-21.87,4.34-5.33,5.41-10.66,6.19-14.56a16.1,16.1,0,0,1,1.28-4.47,26.07,26.07,0,0,1,3.28-4.22,34.67,34.67,0,0,0,8.18-13.58c1.64-5.17,2.83-6.44,6.79-10.65.68-.73,1.42-1.51,2.2-2.37,13.32-14.49,9.89-25.56,6.26-37.28-3.06-9.87,2.29-16.18,15.22-28.21,5.6-5.22,11.4-10.62,15.87-17.1,2-2.84,7.93-11.47,4.24-20-3.62-8.39-12.81-9.8-20.2-10.93-2.92-.45-7.32-1.13-8.73-2-6.18-4.05-10-12.49-13.63-20.66-.73-1.62-1.45-3.23-2.18-4.78-1.3-2.78-2.6-6.14-4-9.7-3.64-9.42-7.76-20.09-14.78-27.53-6.31-6.68-18.2-9.9-28.7-12.75-3.52-.95-6.86-1.85-9.05-2.66a10,10,0,0,0-5.75-.36c-5.1,1.2-8.29,2.52-10.66,4.41a12.56,12.56,0,0,0-3.56,4.79,114.26,114.26,0,0,1-11.79-7.17l-.19-.13A14.22,14.22,0,0,0,244,165c-5.59-11.81-24.13-10.89-27.79-10.58-2.08.18-4.71.27-7.49.37-4.37.15-9.19.33-14,.86L195,155a25.57,25.57,0,0,1,24-16.89h5.69a10,10,0,0,0,0-20H219a45.64,45.64,0,0,0-38.71,21.59l-14.91-20.9,14.67-35.57L244.79,60.5a10,10,0,0,0,4.51-3.2l28.76-36.08c73.49,7,142.67,48.19,182.32,116.86a233.21,233.21,0,0,1,23.56,57.23l-4.24,3.78a26.75,26.75,0,0,0-8.9,19.43v.24l-6.91-19a25.15,25.15,0,0,0-4.5-7.72l-12.32-14.43A25.06,25.06,0,0,0,428,168.83H412.91a14.48,14.48,0,0,0-12.05,22.51l1.52,2.3a110.88,110.88,0,0,1-33,19.6L348.7,173.65v-8.83a10,10,0,0,0-3.1-7.24L327,139.81a10,10,0,0,0-3.59-2.2l-16.75-5.88A10,10,0,1,0,300,150.59l14.72,5.18,14,13.32v7a10,10,0,0,0,1.14,4.63l25.87,49.57A10,10,0,0,0,368,235.05l7.53-2.78a130.71,130.71,0,0,0,46.92-30,10,10,0,0,0,1.25-12.61l-.53-.8H428a5.1,5.1,0,0,1,3.87,1.78L444.18,205a5,5,0,0,1,.92,1.56L458.69,244a10,10,0,0,0,16.47,3.65l6.47-6.47a31.14,31.14,0,0,0,8.26-15c10,80.21-21.44,163.18-87.91,215.35a10,10,0,1,0,12.35,15.73,256,256,0,0,0,63.36-329.13ZM47.28,282.75,88.51,314.1A10.07,10.07,0,0,0,92.65,316l24.85,4.86a11.11,11.11,0,0,1,8.43,14.36,30.94,30.94,0,0,0,0,19.31l3.17,9.75a11.12,11.12,0,0,1-7.14,14L112,381.46a10,10,0,0,0-6.73,7.63l-8,41.75A238.87,238.87,0,0,1,51.72,374a234.68,234.68,0,0,1-29-83.28Zm58.28-159.49L93.8,135.86a9.84,9.84,0,0,0-1.37,1.85L65.72,184.35,42,201.33a10,10,0,0,0-2.45,13.76l8.88,13c-5.12.76-9.71,1.39-12.77,1.72-.58-.56-1.2-1.13-1.83-1.72-2.38-2.21-5.68-5.16-10.61-9.47A236.3,236.3,0,0,1,93.64,84.89a26,26,0,0,1,16.2,14.83A22.2,22.2,0,0,1,105.56,123.26Zm81.53,54.64c4.46-2.51,14.81-2.88,22.37-3.14,3-.11,5.89-.21,8.45-.43a27.58,27.58,0,0,1,4.26,0,10,10,0,0,0,4.6,12.44c1.87,1,4.48,2.75,7.25,4.59,7.81,5.21,16.67,11.11,25,11.64a16.61,16.61,0,0,0,13.59-5.65c.14-.15.28-.3.42-.43a10.72,10.72,0,0,0,2.68-3.28c1.59.46,3.27.92,5,1.38,5.92,1.61,16.94,4.59,19.37,7.17,4.33,4.58,7.7,13.31,10.67,21,1.51,3.89,2.93,7.56,4.52,11q1,2.19,2,4.49c4.62,10.29,9.85,22,20.94,29.21,5,3.29,11.2,4.23,16.64,5.07l2.18.34c-3.23,4.51-7.83,8.79-12.69,13.31-12.38,11.53-27.78,25.88-20.69,48.77,3.35,10.81,3.51,12-1.88,17.83-.73.8-1.42,1.53-2.06,2.21-4.61,4.91-8.25,8.79-11.27,18.29-.88,2.76-2,4-4.07,6.36a44.55,44.55,0,0,0-5.6,7.4,32.57,32.57,0,0,0-3.61,10.63c-.6,2.95-.93,4.44-2.09,5.86a58.21,58.21,0,0,1-12.63,11.16c-4.7,3-7.44,3.39-8.38,3.34-1.06-1.15-4.93-6.15-10.77-23.49-1.44-4.27-3.44-8.67-5.37-12.93-4.26-9.38-8.66-19.08-6.52-25.71.25-.78.5-1.54.75-2.29,3.42-10.43,6.65-20.28.67-34.62-1.82-4.37-4.72-7.56-7.28-10.37-1.66-1.82-3.53-3.89-3.82-5.08a21.88,21.88,0,0,1-.33-5.06c0-5.22.09-13.12-7.76-20.47-11.07-10.35-24-7.16-32.51-5.05a62.48,62.48,0,0,1-7.3,1.52c-14,1.65-26.59-3.65-34.42-14.55-8.19-11.4-9.38-26.73-3.1-40,3-6.44,7.63-11.6,12.95-17.58,1.16-1.31,2.33-2.63,3.5-4,1.95-2.25,4.1-5.29,6.37-8.51C179.85,186.42,184.9,179.26,187.09,177.9Z"/><path class="a" d="M410,344.28l-4.81-18.14a10,10,0,0,0-18.45-2.2c-1.1,2-2.09,4.16-3,6.23-1.61,3.48-3.27,7.08-5,9.07-1,1.11-3.46,2.32-5.87,3.48-5.76,2.78-13.64,6.58-16.66,16.18a29.3,29.3,0,0,0-.66,14.11c.44,3,.54,4-.25,5.89l-.1.24c-3.19,7.47-9.11,21.37-.81,33.19,5.93,8.44,12.16,10.61,17,10.61a16,16,0,0,0,2.67-.22c10.2-1.66,17.86-12.27,24.13-33.39l11.76-39.64A10,10,0,0,0,410,344.28Zm-31,39.36c-3.19,10.77-6,15.79-7.65,18-.19-.24-.39-.51-.61-.82-1.91-2.72.94-9.43,2.83-13.87l.1-.23c3.05-7.15,2.24-12.65,1.64-16.66-.38-2.57-.51-3.67,0-5.19.4-1.25,2.74-2.46,6.27-4.16,1.56-.76,3.29-1.59,5-2.59Z"/><path class="a" d="M270,118.86l-.68-.24a10,10,0,1,0-6.61,18.87l.67.24A10,10,0,1,0,270,118.86Z"/></svg>