<svg xmlns="http://www.w3.org/2000/svg" viewBox="0 0 21.3 25"><defs><style>.a{fill:#fff;}</style></defs><title>Asset 4</title><path class="a" d="M21.3,18.48c0,.81-.05,2-.15,3.62a2.86,2.86,0,0,1-.95,2,3.15,3.15,0,0,1-2.12.77q-2.47.14-7.44.13t-7.41-.13a3.36,3.36,0,0,1-2.11-.77,2.88,2.88,0,0,1-1-2C.05,20.5,0,19.29,0,18.48s.05-2,.15-3.63a2.84,2.84,0,0,1,1-2,3.22,3.22,0,0,1,2.11-.77q2.45-.13,7.42-.13c3.32,0,5.79,0,7.43.13a3.43,3.43,0,0,1,2.12.77,2.68,2.68,0,0,1,.95,2Q21.3,17.25,21.3,18.48ZM4.6,15.23H6.12V14H1.65v1.25h1.5v7.32H4.6ZM6,0H7.85L6.48,4.12c-.07.21-.15.43-.25.68A5,5,0,0,0,6,5.5l-.2.7v4.4H4V6.4c0-.2-.28-.91-.73-2.13L1.83,0H3.65L4.8,4.23h.13ZM8.5,22.55H9.78V16.23H8.5V21a1.14,1.14,0,0,1-.76.48c-.23,0-.34-.14-.34-.42V16.23H6.1v5.32c0,.73.3,1.1.9,1.1a2.12,2.12,0,0,0,1.5-.8Zm3.9-18V8.65a2,2,0,0,1-.62,1.6,2.45,2.45,0,0,1-1.68.55,2.29,2.29,0,0,1-1.67-.6,2.14,2.14,0,0,1-.65-1.58v-4a1.73,1.73,0,0,1,.7-1.5,2.61,2.61,0,0,1,1.66-.52,2.5,2.5,0,0,1,1.61.56A1.85,1.85,0,0,1,12.4,4.6ZM10.78,8.77V4.5a.51.51,0,0,0-.23-.42.67.67,0,0,0-.47-.16,1.05,1.05,0,0,0-.46.16.45.45,0,0,0-.19.42V8.77c0,.44.22.65.67.65S10.78,9.21,10.78,8.77Zm4,12.46v-3.5c0-1.06-.42-1.58-1.25-1.58a1.52,1.52,0,0,0-1.15.58V14h-1.3v8.57h1.3v-.5a1.67,1.67,0,0,0,1.23.57C14.36,22.62,14.75,22.16,14.75,21.23Zm-1.32-3.46V21.1c0,.35-.15.52-.45.52a.86.86,0,0,1-.63-.27v-4a.76.76,0,0,1,.55-.25C13.25,17.15,13.43,17.36,13.43,17.77Zm4.9-15V10.6h-1.6V9.73a2.63,2.63,0,0,1-1.85,1c-.76,0-1.13-.47-1.13-1.4V2.77h1.6v6c0,.35.14.53.43.53a1.41,1.41,0,0,0,1-.6V2.77Zm1.2,18v-.48H18.2l0,.33a2.3,2.3,0,0,1,0,.38l-.08.29a.31.31,0,0,1-.17.25,1.1,1.1,0,0,1-.37.07.4.4,0,0,1-.36-.14.71.71,0,0,1-.15-.3,2.43,2.43,0,0,1,0-.42V19.52h2.45v-1.6a1.89,1.89,0,0,0-.48-1.37,1.77,1.77,0,0,0-1.34-.5,2,2,0,0,0-1.41.5,1.79,1.79,0,0,0-.57,1.37v2.83a2,2,0,0,0,.5,1.45,1.7,1.7,0,0,0,1.37.53A1.73,1.73,0,0,0,19.53,20.75Zm-1.33-2.9v.7H17.08v-.7c0-.45.18-.68.56-.68S18.2,17.4,18.2,17.85Z"/></svg>