<svg xmlns="http://www.w3.org/2000/svg" viewBox="0 0 123.71 50.56"><defs><style>.a{fill:#6a757d;}</style></defs><title>logo-Asset 3</title><path class="a" d="M115,9.42l1.34,0-.37.37V23.84a29.46,29.46,0,0,0-1-3.4Z"/><path class="a" d="M113.38,9.42l1.58,0-.34.37v9.57a19.47,19.47,0,0,0-1.24-2.59Z"/><path class="a" d="M104.26,9.42l1,0-.39.38v.5h-.57Z"/><path class="a" d="M105.28,9.44l1.36,0-.56.37v.68a7,7,0,0,0-.8-.13Z"/><path class="a" d="M111.08,9.42l2.22,0-.45.37v6.06a15.68,15.68,0,0,0-1.79-2.3Z"/><path class="a" d="M106.67,9.46l1.77-.07-.6.37v1.32a7.94,7.94,0,0,0-1.17-.47Z"/><path class="a" d="M103.44,3.89a1.36,1.36,0,0,1,0,.27,2.07,2.07,0,0,1-.55,1.32,2.35,2.35,0,0,1-3,0A1.87,1.87,0,0,1,99.35,4a1.86,1.86,0,0,0,.59,1,2.3,2.3,0,0,0,3,0A2.16,2.16,0,0,0,103.44,3.89Z"/><path class="a" d="M105,3.79c0,.12,0,.25,0,.37,0,3.89-5.91,4.43-6.93,1,0-.1.06-.13.1-.07C99.65,8.22,104.9,7.5,105,3.79Z"/><path class="a" d="M123.68,3.71c0,.2,0,.4,0,.62.15,3.91-5.7,4.56-7,.78,0-.11,0-.13.08-.06,1.29,3.42,6.87,2.62,6.87-1.14Z"/><path class="a" d="M122.39,3.62c.59,2.68-3.47,3.57-4.21,1.08,0-.09.08-.09.1,0a2.16,2.16,0,0,0,.37.53,2.32,2.32,0,0,0,3,0A2.35,2.35,0,0,0,122.39,3.62Z"/><path class="a" d="M120.65,3.83c-.1.33-.23.43-.61.37s-.47-.27-.77-.25a.42.42,0,0,0-.4.25c.06-.36.23-.52.48-.54a.89.89,0,0,1,.64.18A.54.54,0,0,0,120.65,3.83Z"/><path class="a" d="M121.52,2.91a2.41,2.41,0,0,0-4.06.67c0,.1-.1.1-.1,0,0-2.27,3.75-2.68,4.31-.75C121.71,3,121.59,3,121.52,2.91Z"/><path class="a" d="M123.29,2.66a3.69,3.69,0,0,0-3.6-2c-3,0-6.24,1.76-8.93,1.77S104.78.52,102,.52a3.93,3.93,0,0,0-3.32,1.7c-.09.14-.24.12-.14-.1a3.84,3.84,0,0,1,3.48-2c2.77,0,6.06,1.79,8.75,1.76S116.65.27,119.65.27c1.94,0,3.28.8,3.76,2.3C123.44,2.67,123.34,2.78,123.29,2.66Z"/><path class="a" d="M103.86,2.86A2.48,2.48,0,0,0,99.79,3c-.07.1-.17.1-.12-.07.63-1.87,3.69-2.14,4.29-.15C104,2.91,103.91,2.93,103.86,2.86Z"/><path class="a" d="M102.61,3.83c-.09-.12-.35-.12-.5-.1-.37,0-.89.48-1.22-.17.13.15.5.1.7,0S102.58,3.39,102.61,3.83Z"/><path class="a" d="M108.62,9.42l2.38,0-.92.37v2.8a13.42,13.42,0,0,0-1.46-1.06Z"/><path class="a" d="M116.19,7.14a.47.47,0,0,0,.39-.16s.13-.05,0-.5A1.4,1.4,0,0,1,116,7C115.89,7.08,115.84,7.15,116.19,7.14Z"/><path class="a" d="M114.59,7.1c.35,0,.37-.17.38-.15s.14,0,0-.48a1.79,1.79,0,0,1-.55.48C114.29,7.05,114.25,7.12,114.59,7.1Z"/><path class="a" d="M113.05,7.14c.33,0,.37-.17.38-.16s.14-.05,0-.5a1.33,1.33,0,0,1-.53.5C112.75,7.08,112.7,7.15,113.05,7.14Z"/><path class="a" d="M111.41,7.14c.36,0,.39-.17.39-.16s.13-.05,0-.5a1.41,1.41,0,0,1-.56.5C111.11,7.08,111.08,7.15,111.41,7.14Z"/><path class="a" d="M109.73,7.1a.53.53,0,0,0,.38-.15s.13,0,0-.48a1.58,1.58,0,0,1-.53.48C109.43,7.05,109.37,7.12,109.73,7.1Z"/><path class="a" d="M108,7.07c.33,0,.37-.15.37-.15s.13,0,0-.48a1.58,1.58,0,0,1-.53.48C107.72,7,107.69,7.08,108,7.07Z"/><path class="a" d="M106.55,7.14c.35,0,.37-.17.39-.16s.13-.05,0-.5a1.48,1.48,0,0,1-.55.5C106.25,7.08,106.22,7.15,106.55,7.14Z"/><path class="a" d="M107.39,7.65l9.39,0V9.39h0V29c-.08-.95-.2-1.87-.34-2.73V9.39h.27C115.88,7.22,107.67,8.17,107.39,7.65Z"/><path class="a" d="M104.9,7.07c.33,0,.36-.15.36-.15s.14,0,0-.48a1.58,1.58,0,0,1-.53.48C104.58,7,104.55,7.08,104.9,7.07Z"/><path class="a" d="M12,37.9a1.51,1.51,0,0,0,0,.3h0v.32a2.35,2.35,0,0,1,0,.27v0c0,.09,0,.17,0,.27v0a1,1,0,0,0,0,.25v0a1.9,1.9,0,0,0,0,.25v0a14.71,14.71,0,0,0,.67,2.61h0a12.79,12.79,0,0,0,11.43,8.22H0c6.8-.2,12-6.23,12-12.63h0v0ZM15.92,49A14.51,14.51,0,0,1,12,44.26,14.21,14.21,0,0,1,8.12,49Z"/><path class="a" d="M50.26,49A14.3,14.3,0,0,1,46,43.46L28.86,9.09l-.49-.95c-.05-.1-.22-.4-.25-.49a11.18,11.18,0,0,0-9.39-6.11v0H13.28a14.16,14.16,0,0,1,4.28,5.6L34.7,41.49c0,.12.37.75.49,1A11.13,11.13,0,0,0,44.81,49v0h5.45ZM71,37.9v.3h0a1.46,1.46,0,0,1,0,.29v0c0,.08,0,.18,0,.27v0c0,.09,0,.17,0,.27v0c0,.09,0,.17,0,.25a.06.06,0,0,1,0,0,1,1,0,0,0,0,.25v0a14.71,14.71,0,0,0,.67,2.61h0a12.78,12.78,0,0,0,11.43,8.22H45.35A12.65,12.65,0,0,1,33.78,43l-16-32h0l-1.52-3,0,0A12.66,12.66,0,0,0,4.54,0H18.2A12.24,12.24,0,0,1,29.31,6.67c5.26,11,10.94,22,16.4,32.91,0,0,1.79,3.56,1.93,3.85A12.69,12.69,0,0,0,59,50.55,12.75,12.75,0,0,0,71,37.93h0Z"/><path class="a" d="M47.05,1.55h7.72a14.42,14.42,0,0,0-3.86,4.72,14.13,14.13,0,0,0-3.86-4.72ZM71.13,30.29v1.53H86.64L92.21,43a12.66,12.66,0,0,0,11.57,7.56h13.65a12.67,12.67,0,0,1-11.36-7.12c-.14-.29-1.94-3.85-1.92-3.85C98.68,28.62,93,17.71,87.74,6.65A12.2,12.2,0,0,0,76.63,0h-37V0h-.93A12.7,12.7,0,0,1,50.06,8.25h0a11.75,11.75,0,0,1,.67,2.59.13.13,0,0,1,0,.06c0,.08,0,.16,0,.25v0a2,2,0,0,1,0,.24v0a1.37,1.37,0,0,1,0,.28v0a1.23,1.23,0,0,1,0,.27s0,0,0,0v.28h0v.32h0c0-.26,0-.49,0-.72v.1c0,.1,0,.18,0,.28h0v.3h0C50.93,6.12,56.28.2,62.89,0h.19A12.65,12.65,0,0,1,74.7,8a.05.05,0,0,0,0,0L76.27,11h0l9.62,19.3Z"/></svg>